<svg width="110" height="41" viewBox="0 0 110 41" fill="none" xmlns="http://www.w3.org/2000/svg">
<path d="M55.98 17.4V23.26C55.98 24.82 55.5933 26.02 54.82 26.86C54.0467 27.7 52.9267 28.12 51.46 28.12C49.7267 28.12 48.5267 27.4867 47.86 26.22C47.5133 26.86 47.04 27.34 46.44 27.66C45.8533 27.9667 45.12 28.12 44.24 28.12C42.76 28.12 41.6333 27.7 40.86 26.86C40.1 26.02 39.72 24.82 39.72 23.26V17.4H41.64V23.08C41.64 24.2133 41.8467 25.0533 42.26 25.6C42.6733 26.1333 43.3333 26.4 44.24 26.4C45.1467 26.4 45.8133 26.1267 46.24 25.58C46.68 25.0333 46.9 24.2 46.9 23.08V17.4H48.82V23.08C48.82 24.2 49.0333 25.0333 49.46 25.58C49.9 26.1267 50.5733 26.4 51.48 26.4C52.3733 26.4 53.0267 26.1333 53.44 25.6C53.8533 25.0533 54.06 24.2133 54.06 23.08V17.4H55.98ZM64.107 26.44C65.3737 26.44 66.3937 26.0133 67.167 25.16L68.207 26.4C67.7404 26.96 67.147 27.3867 66.427 27.68C65.7204 27.9733 64.927 28.12 64.047 28.12C62.927 28.12 61.9337 27.8933 61.067 27.44C60.2004 26.9733 59.527 26.3267 59.047 25.5C58.5804 24.6733 58.347 23.74 58.347 22.7C58.347 21.6733 58.5737 20.7467 59.027 19.92C59.4937 19.0933 60.127 18.4533 60.927 18C61.7404 17.5333 62.6537 17.3 63.667 17.3C64.627 17.3 65.5004 17.52 66.287 17.96C67.0737 18.3867 67.7004 18.9933 68.167 19.78C68.6337 20.5667 68.8737 21.4733 68.887 22.5L60.467 24.14C60.7337 24.8733 61.1804 25.44 61.807 25.84C62.447 26.24 63.2137 26.44 64.107 26.44ZM63.667 18.92C63.0004 18.92 62.4004 19.0733 61.867 19.38C61.347 19.6867 60.9404 20.12 60.647 20.68C60.3537 21.2267 60.207 21.8667 60.207 22.6V22.8L66.987 21.52C66.8137 20.7467 66.427 20.12 65.827 19.64C65.227 19.16 64.507 18.92 63.667 18.92ZM76.9931 17.3C78.0198 17.3 78.9398 17.5267 79.7531 17.98C80.5665 18.4333 81.1998 19.0667 81.6531 19.88C82.1198 20.6933 82.3531 21.6333 82.3531 22.7C82.3531 23.7667 82.1198 24.7133 81.6531 25.54C81.1998 26.3533 80.5665 26.9867 79.7531 27.44C78.9398 27.8933 78.0198 28.12 76.9931 28.12C76.2065 28.12 75.4865 27.9667 74.8331 27.66C74.1798 27.3533 73.6398 26.9067 73.2131 26.32V28H71.3731V13.16H73.2931V19C73.7198 18.44 74.2531 18.02 74.8931 17.74C75.5331 17.4467 76.2331 17.3 76.9931 17.3ZM76.8331 26.44C77.5131 26.44 78.1198 26.2867 78.6531 25.98C79.1998 25.66 79.6265 25.22 79.9331 24.66C80.2531 24.0867 80.4131 23.4333 80.4131 22.7C80.4131 21.9667 80.2531 21.32 79.9331 20.76C79.6265 20.1867 79.1998 19.7467 78.6531 19.44C78.1198 19.1333 77.5131 18.98 76.8331 18.98C76.1665 18.98 75.5598 19.1333 75.0131 19.44C74.4665 19.7467 74.0398 20.1867 73.7331 20.76C73.4265 21.32 73.2731 21.9667 73.2731 22.7C73.2731 23.4333 73.4265 24.0867 73.7331 24.66C74.0398 25.22 74.4665 25.66 75.0131 25.98C75.5598 26.2867 76.1665 26.44 76.8331 26.44ZM90.4259 17.3C91.4526 17.3 92.3726 17.5267 93.1859 17.98C93.9993 18.4333 94.6326 19.0667 95.0859 19.88C95.5526 20.6933 95.7859 21.6333 95.7859 22.7C95.7859 23.7667 95.5526 24.7133 95.0859 25.54C94.6326 26.3533 93.9993 26.9867 93.1859 27.44C92.3726 27.8933 91.4526 28.12 90.4259 28.12C89.6393 28.12 88.9193 27.9667 88.2659 27.66C87.6126 27.3533 87.0726 26.9067 86.6459 26.32V28H84.8059V13.16H86.7259V19C87.1526 18.44 87.6859 18.02 88.3259 17.74C88.9659 17.4467 89.6659 17.3 90.4259 17.3ZM90.2659 26.44C90.9459 26.44 91.5526 26.2867 92.0859 25.98C92.6326 25.66 93.0593 25.22 93.3659 24.66C93.6859 24.0867 93.8459 23.4333 93.8459 22.7C93.8459 21.9667 93.6859 21.32 93.3659 20.76C93.0593 20.1867 92.6326 19.7467 92.0859 19.44C91.5526 19.1333 90.9459 18.98 90.2659 18.98C89.5993 18.98 88.9926 19.1333 88.4459 19.44C87.8993 19.7467 87.4726 20.1867 87.1659 20.76C86.8593 21.32 86.7059 21.9667 86.7059 22.7C86.7059 23.4333 86.8593 24.0867 87.1659 24.66C87.4726 25.22 87.8993 25.66 88.4459 25.98C88.9926 26.2867 89.5993 26.44 90.2659 26.44ZM108.119 17.4V26.56C108.119 28.4133 107.685 29.78 106.819 30.66C105.952 31.5533 104.652 32 102.919 32C101.972 32 101.065 31.86 100.199 31.58C99.3454 31.3133 98.6454 30.9267 98.0988 30.42L99.0388 28.94C99.5054 29.3667 100.065 29.7 100.719 29.94C101.385 30.18 102.085 30.3 102.819 30.3C103.979 30.3 104.832 30.0067 105.379 29.42C105.925 28.8467 106.199 27.96 106.199 26.76V25.98C105.812 26.4867 105.312 26.88 104.699 27.16C104.085 27.4267 103.419 27.56 102.699 27.56C101.285 27.56 100.172 27.1733 99.3588 26.4C98.5454 25.6267 98.1388 24.48 98.1388 22.96V17.4H100.059V22.74C100.059 23.7533 100.305 24.5267 100.799 25.06C101.292 25.58 101.999 25.84 102.919 25.84C103.932 25.84 104.732 25.5333 105.319 24.92C105.905 24.3067 106.199 23.44 106.199 22.32V17.4H108.119Z" fill="white"/>
<path fill-rule="evenodd" clip-rule="evenodd" d="M17.144 37.9221L30.2893 30.2726L27.9035 28.8842L27.7983 28.9461L17.1846 35.185L17.144 35.2088V37.9221ZM31.4389 12.9738L28.9394 14.4283V14.458V26.8106L31.4389 28.2651V12.9738ZM25.4774 13.7665L23.4262 14.9602L23.3146 14.8931L17.2038 11.2122L17.144 11.1762V8.86807L25.4774 13.7665ZM27.7712 12.4317L17.1846 6.20868L17.144 6.18487V3.31699L30.289 10.9665L27.7712 12.4317ZM21.1463 16.2869L17.144 13.8762V18.616L21.1463 16.2869ZM13.7013 20.6194L9.92724 18.4232V22.8157L13.7013 20.6194ZM10.9736 24.8831L14.8583 22.6226V27.2231L10.9736 24.8831ZM7.64153 24.1458V17.0931L5.42626 15.804V25.435L7.64153 24.1458ZM6.4313 27.5265L8.69376 26.2099L8.76169 26.2508L14.8583 29.9231V32.4799L6.4313 27.5265ZM3.14055 26.765V14.4739L0.5625 12.9736V28.2653L3.14055 26.765ZM1.71229 30.2727L4.13746 28.8614L4.28172 28.9461L14.8583 35.1632V37.9227L1.71229 30.2727ZM18.3005 20.6194L22.1491 22.8591V18.3798L18.3005 20.6194ZM26.6537 15.7584V25.4805L24.4349 24.1893V17.0496L26.6537 15.7584ZM23.3458 26.232L25.6097 27.5494L17.144 32.5256V29.9677L17.2038 29.9317L23.3146 26.2508L23.3458 26.232ZM14.8583 13.9208V18.6163L10.8934 16.3091L14.8583 13.9208ZM8.76169 14.8931L8.61353 14.9823L6.56362 13.7894L14.8583 8.91372V11.2208L8.76169 14.8931ZM4.28172 12.4475L4.26979 12.4546L1.71248 10.9664L14.8583 3.31641V6.23052L4.28172 12.4475ZM21.0661 24.9053L17.144 22.6229V27.2677L21.0661 24.9053Z" fill="white"/>
</svg>
