<svg width="24" height="27" viewBox="0 0 24 27" fill="none" xmlns="http://www.w3.org/2000/svg">
<g clip-path="url(#clip0_696_66)">
<path fill-rule="evenodd" clip-rule="evenodd" d="M12.858 26.1916L22.7169 20.4544L20.9277 19.4132L20.8487 19.4596L12.8884 24.1388L12.858 24.1566V26.1916ZM23.5791 7.48034L21.7046 8.57119V8.59348V17.858L23.5791 18.9489V7.48034ZM19.108 8.07488L17.5696 8.97018L17.486 8.91984L12.9028 6.15912L12.858 6.13214V4.40105L19.108 8.07488ZM20.8284 7.07374L12.8884 2.40651L12.858 2.38865V0.237741L22.7168 5.97486L20.8284 7.07374ZM15.8597 9.96518L12.858 8.15713V11.712L15.8597 9.96518ZM10.2759 13.2146L7.44543 11.5674V14.8618L10.2759 13.2146ZM8.23022 16.4123L11.1437 14.7169V18.1673L8.23022 16.4123ZM5.73115 15.8594V10.5698L4.0697 9.60303V16.8262L5.73115 15.8594ZM4.82348 18.3948L6.52032 17.4074L6.57127 17.4381L11.1437 20.1923V22.1099L4.82348 18.3948ZM2.35541 17.8237V8.60539L0.421875 7.4802V18.9489L2.35541 17.8237ZM1.28421 20.4545L3.1031 19.396L3.21129 19.4596L11.1437 24.1224V26.192L1.28421 20.4545ZM13.7253 13.2146L16.6119 14.8943V11.5348L13.7253 13.2146ZM19.9903 9.5688V16.8604L18.3261 15.8919V10.5372L19.9903 9.5688ZM17.5094 17.424L19.2073 18.4121L12.858 22.1442V20.2258L12.9028 20.1988L17.486 17.4381L17.5094 17.424ZM11.1437 8.19058V11.7122L8.17004 9.98181L11.1437 8.19058ZM6.57127 8.91984L6.46015 8.98673L4.92272 8.09206L11.1437 4.43529V6.16559L6.57127 8.91984ZM3.21129 7.08566L3.20235 7.09092L1.28436 5.97479L11.1437 0.237305V2.42289L3.21129 7.08566ZM15.7995 16.429L12.858 14.7172V18.2008L15.7995 16.429Z" fill="white"/>
</g>
<defs>
<clipPath id="clip0_696_66">
<rect width="24" height="27" fill="white"/>
</clipPath>
</defs>
</svg>
